<svg width="28" height="28" viewBox="0 0 28 28" fill="none" xmlns="http://www.w3.org/2000/svg">
<path d="M19.091 26.5999V4.1999C19.091 3.4573 18.8228 2.74511 18.3455 2.22C17.8681 1.6949 17.2206 1.3999 16.5455 1.3999H11.4546C10.7795 1.3999 10.1321 1.6949 9.65473 2.22C9.17736 2.74511 8.90918 3.4573 8.90918 4.1999V26.5999" stroke="#1D3551" stroke-width="2" stroke-linecap="round" stroke-linejoin="round"/>
<path d="M24.1818 7H3.81816C2.41234 7 1.27271 8.2536 1.27271 9.8V23.8C1.27271 25.3464 2.41234 26.6 3.81816 26.6H24.1818C25.5876 26.6 26.7272 25.3464 26.7272 23.8V9.8C26.7272 8.2536 25.5876 7 24.1818 7Z" stroke="#1D3551" stroke-width="2" stroke-linecap="round" stroke-linejoin="round"/>
</svg>
